<?xml version="1.0" standalone="no"?>
<svg xmlns:xlink="http://www.w3.org/1999/xlink" id="wave" style="transform:rotate(0deg); transition: 0.3s" viewBox="0 0 1440 150" version="1.1" xmlns="http://www.w3.org/2000/svg"><defs><linearGradient id="sw-gradient-0" x1="0" x2="0" y1="1" y2="0"><stop stop-color="rgba(250, 247, 240, 1)" offset="0%"/><stop stop-color="rgba(250, 247, 240, 1)" offset="100%"/></linearGradient></defs><path style="transform:translate(0, 0px); opacity:1" fill="url(#sw-gradient-0)" d="M0,135L80,120C160,105,320,75,480,72.5C640,70,800,95,960,100C1120,105,1280,90,1440,72.5C1600,55,1760,35,1920,35C2080,35,2240,55,2400,57.5C2560,60,2720,45,2880,52.5C3040,60,3200,90,3360,90C3520,90,3680,60,3840,42.5C4000,25,4160,20,4320,30C4480,40,4640,65,4800,67.5C4960,70,5120,50,5280,35C5440,20,5600,10,5760,5C5920,0,6080,0,6240,20C6400,40,6560,80,6720,85C6880,90,7040,60,7200,60C7360,60,7520,90,7680,105C7840,120,8000,120,8160,117.5C8320,115,8480,110,8640,105C8800,100,8960,95,9120,77.5C9280,60,9440,30,9600,22.5C9760,15,9920,30,10080,45C10240,60,10400,75,10560,82.5C10720,90,10880,90,11040,77.5C11200,65,11360,40,11440,27.5L11520,15L11520,150L11440,150C11360,150,11200,150,11040,150C10880,150,10720,150,10560,150C10400,150,10240,150,10080,150C9920,150,9760,150,9600,150C9440,150,9280,150,9120,150C8960,150,8800,150,8640,150C8480,150,8320,150,8160,150C8000,150,7840,150,7680,150C7520,150,7360,150,7200,150C7040,150,6880,150,6720,150C6560,150,6400,150,6240,150C6080,150,5920,150,5760,150C5600,150,5440,150,5280,150C5120,150,4960,150,4800,150C4640,150,4480,150,4320,150C4160,150,4000,150,3840,150C3680,150,3520,150,3360,150C3200,150,3040,150,2880,150C2720,150,2560,150,2400,150C2240,150,2080,150,1920,150C1760,150,1600,150,1440,150C1280,150,1120,150,960,150C800,150,640,150,480,150C320,150,160,150,80,150L0,150Z"/></svg>